<svg width="18" height="18" viewBox="0 0 18 18" fill="none" xmlns="http://www.w3.org/2000/svg">
<path d="M12.975 4.72497C12.6825 4.43247 12.21 4.43247 11.9175 4.72497L7.68748 8.95497L8.74498 10.0125L12.975 5.77497C13.26 5.48997 13.26 5.00997 12.975 4.72497V4.72497ZM16.155 4.71747L8.74498 12.1275L6.13498 9.52497C5.84248 9.23247 5.36998 9.23247 5.07748 9.52497C4.78498 9.81747 4.78498 10.29 5.07748 10.5825L8.21248 13.7175C8.50498 14.01 8.97748 14.01 9.26998 13.7175L17.2125 5.78247C17.505 5.48997 17.505 5.01747 17.2125 4.72497H17.205C16.92 4.42497 16.4475 4.42497 16.155 4.71747ZM0.83998 10.59L3.97498 13.725C4.26748 14.0175 4.73998 14.0175 5.03248 13.725L5.55748 13.2L1.89748 9.52497C1.60498 9.23247 1.13248 9.23247 0.83998 9.52497C0.54748 9.81747 0.54748 10.2975 0.83998 10.59V10.59Z" fill="url(#paint0_linear_295_2)"/>
<defs>
<linearGradient id="paint0_linear_295_2" x1="9.02623" y1="4.49902" x2="9.02623" y2="13.9443" gradientUnits="userSpaceOnUse">
<stop stop-color="#D2C01E"/>
<stop offset="1" stop-color="#BC9714"/>
</linearGradient>
</defs>
</svg>
