<svg width="24" height="24" viewBox="0 0 24 24" fill="none" xmlns="http://www.w3.org/2000/svg">
<path d="M15.904 13.0505L13.7827 15.1718L19.7789 21.1681L21.9002 19.0468L15.904 13.0505Z" fill="url(#paint0_linear_179_7)"/>
<path d="M17.5001 9.99999C19.4301 9.99999 21.0001 8.42999 21.0001 6.49999C21.0001 5.91999 20.8401 5.37999 20.5901 4.89999L17.8901 7.59999L16.4001 6.10999L19.1001 3.40999C18.6201 3.15999 18.0801 2.99999 17.5001 2.99999C15.5701 2.99999 14.0001 4.56999 14.0001 6.49999C14.0001 6.90999 14.0801 7.29999 14.2101 7.65999L12.3601 9.50999L10.5801 7.72999L11.2901 7.01999L9.8801 5.60999L12.0001 3.48999C10.8301 2.31999 8.9301 2.31999 7.7601 3.48999L4.2201 7.02999L5.6301 8.43999H2.8101L2.1001 9.14999L5.6401 12.69L6.3501 11.98V9.14999L7.7601 10.56L8.4701 9.84999L10.2501 11.63L2.8401 19.04L4.9601 21.16L16.3401 9.78999C16.7001 9.91999 17.0901 9.99999 17.5001 9.99999Z" fill="url(#paint1_linear_179_7)"/>
<defs>
<linearGradient id="paint0_linear_179_7" x1="14.8434" y1="14.1112" x2="20.8396" y2="20.1074" gradientUnits="userSpaceOnUse">
<stop stop-color="#D2C01E"/>
<stop offset="1" stop-color="#BC9714"/>
</linearGradient>
<linearGradient id="paint1_linear_179_7" x1="11.5501" y1="2.61249" x2="11.5501" y2="21.16" gradientUnits="userSpaceOnUse">
<stop stop-color="#D2C01E"/>
<stop offset="1" stop-color="#BC9714"/>
</linearGradient>
</defs>
</svg>
