<svg width="378" height="113" viewBox="0 0 378 113" fill="none" xmlns="http://www.w3.org/2000/svg">
<path d="M47.104 78H38.848L37.696 59.504C37.312 52.8907 37.12 47.6427 37.12 43.76V41.456L29.056 73.2H21.056L12.48 41.392C12.5653 44.208 12.608 46.3413 12.608 47.792C12.608 51.6747 12.48 55.664 12.224 59.76L11.136 78H2.944L6.464 33.776H17.344L25.216 64.752L32.64 33.776H43.648L47.104 78ZM68.8145 43.184C73.8065 43.184 77.6892 44.784 80.4625 47.984C83.2785 51.1413 84.6865 55.4933 84.6865 61.04C84.6865 64.5813 84.0465 67.7173 82.7665 70.448C81.4865 73.136 79.6518 75.2267 77.2625 76.72C74.8732 78.2133 72.0358 78.96 68.7505 78.96C63.7585 78.96 59.8545 77.3813 57.0385 74.224C54.2225 71.024 52.8145 66.6293 52.8145 61.04C52.8145 57.4987 53.4545 54.384 54.7345 51.696C56.0145 49.008 57.8492 46.9173 60.2385 45.424C62.6705 43.9307 65.5292 43.184 68.8145 43.184ZM68.8145 49.392C63.9078 49.392 61.4545 53.2747 61.4545 61.04C61.4545 65.0507 62.0518 68.016 63.2465 69.936C64.4838 71.8133 66.3185 72.752 68.7505 72.752C71.1825 72.752 72.9958 71.792 74.1905 69.872C75.4278 67.952 76.0465 65.008 76.0465 61.04C76.0465 57.072 75.4278 54.1493 74.1905 52.272C72.9958 50.352 71.2038 49.392 68.8145 49.392ZM111.758 76.4C110.563 77.2533 109.219 77.8933 107.726 78.32C106.275 78.7467 104.782 78.96 103.246 78.96C99.9175 78.9173 97.3788 77.9787 95.6295 76.144C93.9228 74.2667 93.0695 71.5147 93.0695 67.888V50.032H87.7575V44.144H93.0695V36.656L101.262 35.696V44.144H109.134L108.302 50.032H101.262V67.696C101.262 69.36 101.539 70.5547 102.094 71.28C102.691 72.0053 103.608 72.368 104.846 72.368C106.083 72.368 107.427 71.9627 108.878 71.152L111.758 76.4ZM129.127 43.184C134.119 43.184 138.002 44.784 140.775 47.984C143.591 51.1413 144.999 55.4933 144.999 61.04C144.999 64.5813 144.359 67.7173 143.079 70.448C141.799 73.136 139.964 75.2267 137.575 76.72C135.186 78.2133 132.348 78.96 129.063 78.96C124.071 78.96 120.167 77.3813 117.351 74.224C114.535 71.024 113.127 66.6293 113.127 61.04C113.127 57.4987 113.767 54.384 115.047 51.696C116.327 49.008 118.162 46.9173 120.551 45.424C122.983 43.9307 125.842 43.184 129.127 43.184ZM129.127 49.392C124.22 49.392 121.767 53.2747 121.767 61.04C121.767 65.0507 122.364 68.016 123.559 69.936C124.796 71.8133 126.631 72.752 129.063 72.752C131.495 72.752 133.308 71.792 134.503 69.872C135.74 67.952 136.359 65.008 136.359 61.04C136.359 57.072 135.74 54.1493 134.503 52.272C133.308 50.352 131.516 49.392 129.127 49.392ZM169.382 43.248C170.619 43.248 171.75 43.3973 172.774 43.696L171.366 51.632C170.342 51.376 169.339 51.248 168.358 51.248C166.353 51.248 164.774 51.9733 163.622 53.424C162.47 54.832 161.553 57.008 160.87 59.952V78H152.678V44.144H159.782L160.55 50.8C161.361 48.368 162.534 46.512 164.07 45.232C165.606 43.9093 167.377 43.248 169.382 43.248ZM187.741 43.184C192.306 43.184 196.317 44.528 199.773 47.216L196.573 52.016C193.672 50.1813 190.834 49.264 188.061 49.264C186.44 49.264 185.181 49.584 184.285 50.224C183.389 50.8213 182.941 51.632 182.941 52.656C182.941 53.424 183.133 54.064 183.517 54.576C183.901 55.088 184.584 55.5787 185.565 56.048C186.589 56.4747 188.082 56.9653 190.045 57.52C193.714 58.5013 196.424 59.8027 198.173 61.424C199.965 63.0453 200.861 65.3067 200.861 68.208C200.861 71.5787 199.496 74.224 196.765 76.144C194.034 78.0213 190.642 78.96 186.589 78.96C183.816 78.96 181.277 78.5333 178.973 77.68C176.712 76.8267 174.749 75.6533 173.085 74.16L177.181 69.552C180.125 71.7707 183.197 72.88 186.397 72.88C188.232 72.88 189.682 72.5173 190.749 71.792C191.858 71.0667 192.413 70.064 192.413 68.784C192.413 67.8027 192.2 67.0347 191.773 66.48C191.389 65.8827 190.664 65.3707 189.597 64.944C188.573 64.4747 186.952 63.92 184.733 63.28C181.277 62.3413 178.738 61.04 177.117 59.376C175.496 57.6693 174.685 55.5573 174.685 53.04C174.685 51.1627 175.218 49.4773 176.285 47.984C177.394 46.4907 178.93 45.3173 180.893 44.464C182.898 43.6107 185.181 43.184 187.741 43.184ZM225.539 43.184C228.525 43.184 230.872 44.1013 232.579 45.936C234.285 47.7707 235.139 50.288 235.139 53.488V78H226.947V54.768C226.947 52.7627 226.584 51.3547 225.859 50.544C225.176 49.7333 224.152 49.328 222.787 49.328C221.421 49.328 220.163 49.776 219.01 50.672C217.859 51.5253 216.749 52.7627 215.683 54.384V78H207.491V30.64L215.683 29.808V48.176C218.413 44.848 221.699 43.184 225.539 43.184ZM252.87 44.144V78H244.678V44.144H252.87ZM248.71 26.992C250.246 26.992 251.483 27.4827 252.422 28.464C253.403 29.4027 253.894 30.576 253.894 31.984C253.894 33.392 253.403 34.5653 252.422 35.504C251.483 36.4427 250.246 36.912 248.71 36.912C247.217 36.912 245.979 36.4427 244.998 35.504C244.059 34.5653 243.59 33.392 243.59 31.984C243.59 30.576 244.059 29.4027 244.998 28.464C245.979 27.4827 247.217 26.992 248.71 26.992ZM280.277 43.184C284.202 43.184 287.274 44.7627 289.493 47.92C291.711 51.0347 292.821 55.408 292.821 61.04C292.821 64.5387 292.266 67.6533 291.157 70.384C290.09 73.072 288.554 75.184 286.549 76.72C284.543 78.2133 282.175 78.96 279.445 78.96C277.61 78.96 275.925 78.576 274.389 77.808C272.895 77.04 271.594 75.952 270.485 74.544L269.973 78H262.741V30.576L270.933 29.68V47.984C272.042 46.448 273.386 45.2747 274.965 44.464C276.586 43.6107 278.357 43.184 280.277 43.184ZM277.205 72.816C279.423 72.816 281.151 71.8773 282.389 70C283.626 68.08 284.245 65.0933 284.245 61.04C284.245 56.7733 283.669 53.7653 282.517 52.016C281.365 50.224 279.743 49.328 277.653 49.328C275.05 49.328 272.81 50.864 270.933 53.936V68.912C271.658 70.1493 272.554 71.1093 273.621 71.792C274.73 72.4747 275.925 72.816 277.205 72.816ZM317.57 43.248C318.807 43.248 319.938 43.3973 320.962 43.696L319.554 51.632C318.53 51.376 317.527 51.248 316.546 51.248C314.54 51.248 312.962 51.9733 311.81 53.424C310.658 54.832 309.74 57.008 309.058 59.952V78H300.866V44.144H307.97L308.738 50.8C309.548 48.368 310.722 46.512 312.258 45.232C313.794 43.9093 315.564 43.248 317.57 43.248ZM334.245 44.144V78H326.053V44.144H334.245ZM330.085 26.992C331.621 26.992 332.858 27.4827 333.797 28.464C334.778 29.4027 335.269 30.576 335.269 31.984C335.269 33.392 334.778 34.5653 333.797 35.504C332.858 36.4427 331.621 36.912 330.085 36.912C328.592 36.912 327.354 36.4427 326.373 35.504C325.434 34.5653 324.965 33.392 324.965 31.984C324.965 30.576 325.434 29.4027 326.373 28.464C327.354 27.4827 328.592 26.992 330.085 26.992ZM372.596 30.576V78H365.364L364.788 73.712C363.721 75.3333 362.356 76.6133 360.692 77.552C359.07 78.4907 357.214 78.96 355.124 78.96C350.985 78.96 347.806 77.36 345.588 74.16C343.369 70.96 342.26 66.608 342.26 61.104C342.26 57.648 342.814 54.576 343.924 51.888C345.033 49.1573 346.612 47.024 348.66 45.488C350.75 43.952 353.161 43.184 355.892 43.184C359.134 43.184 361.972 44.4 364.404 46.832V29.68L372.596 30.576ZM357.428 72.752C358.878 72.752 360.158 72.4107 361.268 71.728C362.377 71.0027 363.422 69.8933 364.404 68.4V52.912C363.422 51.7173 362.42 50.8213 361.396 50.224C360.414 49.6267 359.262 49.328 357.94 49.328C355.764 49.328 354.036 50.3093 352.756 52.272C351.518 54.192 350.9 57.1147 350.9 61.04C350.9 65.2213 351.454 68.2293 352.564 70.064C353.673 71.856 355.294 72.752 357.428 72.752Z" fill="white"/>
<path d="M214.409 100H378V113H201L214.409 100Z" fill="#0085FF"/>
<path d="M185.773 0H0V13H201L185.773 0Z" fill="#FF8A00"/>
</svg>
