<svg width="212" height="35" viewBox="0 0 212 35" fill="none" xmlns="http://www.w3.org/2000/svg">
<path d="M0.412 27V1.44H9.988C13.084 1.44 15.52 2.04 17.296 3.24C19.096 4.44 19.996 6.216 19.996 8.568C19.996 9.72 19.732 10.776 19.204 11.736C18.676 12.696 17.944 13.452 17.008 14.004C18.04 14.484 18.88 15.204 19.528 16.164C20.176 17.1 20.5 18.216 20.5 19.512C20.5 21 20.104 22.308 19.312 23.436C18.52 24.564 17.392 25.44 15.928 26.064C14.464 26.688 12.724 27 10.708 27H0.412ZM10.096 6.228H6.172V11.736H9.736C11.248 11.736 12.352 11.508 13.048 11.052C13.768 10.596 14.128 9.876 14.128 8.892C14.128 8.004 13.804 7.344 13.156 6.912C12.508 6.456 11.488 6.228 10.096 6.228ZM6.172 22.212H10.636C11.884 22.212 12.856 21.984 13.552 21.528C14.272 21.048 14.632 20.304 14.632 19.296C14.632 18.336 14.32 17.64 13.696 17.208C13.072 16.776 12.052 16.56 10.636 16.56H6.172V22.212ZM41.4326 8.748V27H35.8886L36.0686 24.264C34.7486 26.328 32.7926 27.36 30.2006 27.36C28.5686 27.36 27.1766 26.988 26.0246 26.244C24.8726 25.5 23.9966 24.468 23.3966 23.148C22.7966 21.828 22.4966 20.316 22.4966 18.612C22.4966 16.572 22.9166 14.784 23.7566 13.248C24.5966 11.712 25.7246 10.524 27.1406 9.684C28.5566 8.82 30.1406 8.388 31.8926 8.388C33.0446 8.388 34.0646 8.628 34.9526 9.108C35.8406 9.564 36.5246 10.176 37.0046 10.944L37.4726 8.748H41.4326ZM32.4326 13.176C31.1126 13.176 30.0686 13.668 29.3006 14.652C28.5566 15.636 28.1846 16.896 28.1846 18.432C28.1846 19.752 28.4726 20.772 29.0486 21.492C29.6486 22.212 30.4526 22.572 31.4606 22.572C32.6846 22.572 33.7286 22.068 34.5926 21.06C35.4806 20.052 35.9246 18.732 35.9246 17.1C35.9246 15.876 35.6126 14.916 34.9886 14.22C34.3646 13.524 33.5126 13.176 32.4326 13.176ZM58.2505 14.004C57.7705 13.812 57.1225 13.716 56.3065 13.716C55.0585 13.716 54.0625 14.16 53.3185 15.048C52.5745 15.912 52.0345 17.328 51.6985 19.296C51.3625 21.24 51.1945 23.808 51.1945 27H45.7225V15.12L45.6505 8.676H51.1585L50.9065 13.248C51.5545 11.496 52.4185 10.248 53.4985 9.504C54.6025 8.76 55.7785 8.388 57.0265 8.388C57.4345 8.388 57.8065 8.412 58.1425 8.46C58.5025 8.508 58.8625 8.592 59.2225 8.712L58.2505 14.004ZM61.0498 27V0.36H66.5578V8.676L66.3778 11.484C67.6978 9.42 69.6658 8.388 72.2818 8.388C73.9138 8.388 75.3058 8.76 76.4578 9.504C77.6098 10.248 78.4858 11.28 79.0858 12.6C79.6858 13.92 79.9858 15.432 79.9858 17.136C79.9858 19.176 79.5658 20.964 78.7258 22.5C77.8858 24.036 76.7578 25.236 75.3418 26.1C73.9258 26.94 72.3418 27.36 70.5898 27.36C69.4138 27.36 68.3818 27.132 67.4938 26.676C66.6298 26.196 65.9578 25.572 65.4778 24.804L64.9738 27H61.0498ZM70.0138 22.572C71.3338 22.572 72.3778 22.08 73.1458 21.096C73.9138 20.088 74.2978 18.816 74.2978 17.28C74.2978 15.984 73.9978 14.976 73.3978 14.256C72.8218 13.536 72.0298 13.176 71.0218 13.176C69.7978 13.176 68.7418 13.68 67.8538 14.688C66.9898 15.696 66.5578 17.016 66.5578 18.648C66.5578 19.848 66.8698 20.808 67.4938 21.528C68.1178 22.224 68.9578 22.572 70.0138 22.572ZM92.3397 27.36C90.2997 27.36 88.5357 26.988 87.0477 26.244C85.5597 25.476 84.4077 24.408 83.5917 23.04C82.7757 21.648 82.3677 20.004 82.3677 18.108C82.3677 16.188 82.7757 14.496 83.5917 13.032C84.4317 11.568 85.5477 10.428 86.9397 9.612C88.3557 8.796 89.9517 8.388 91.7277 8.388C93.7437 8.388 95.3877 8.844 96.6597 9.756C97.9317 10.668 98.8077 11.964 99.2877 13.644C99.7917 15.3 99.8997 17.232 99.6117 19.44H87.9837C88.1277 20.352 88.6077 21.12 89.4237 21.744C90.2397 22.344 91.3557 22.644 92.7717 22.644C93.4197 22.644 94.1037 22.512 94.8237 22.248C95.5437 21.96 96.1557 21.54 96.6597 20.988L99.7197 24.228C98.9277 25.188 97.9437 25.956 96.7677 26.532C95.6157 27.084 94.1397 27.36 92.3397 27.36ZM91.8357 12.384C90.8757 12.384 90.0597 12.672 89.3877 13.248C88.7397 13.824 88.3077 14.628 88.0917 15.66H94.9677C94.9917 14.532 94.7157 13.704 94.1397 13.176C93.5877 12.648 92.8197 12.384 91.8357 12.384ZM115.555 14.004C115.075 13.812 114.427 13.716 113.611 13.716C112.363 13.716 111.367 14.16 110.623 15.048C109.879 15.912 109.339 17.328 109.003 19.296C108.667 21.24 108.499 23.808 108.499 27H103.027V15.12L102.955 8.676H108.463L108.211 13.248C108.859 11.496 109.723 10.248 110.803 9.504C111.907 8.76 113.083 8.388 114.331 8.388C114.739 8.388 115.111 8.412 115.447 8.46C115.807 8.508 116.167 8.592 116.527 8.712L115.555 14.004ZM135.993 27.324C132.849 27.324 130.413 26.652 128.685 25.308C126.957 23.964 125.973 21.984 125.733 19.368L131.241 18.576C131.385 19.824 131.877 20.784 132.717 21.456C133.557 22.104 134.721 22.428 136.209 22.428C137.481 22.428 138.453 22.212 139.125 21.78C139.821 21.324 140.169 20.688 140.169 19.872C140.169 19.128 139.809 18.54 139.089 18.108C138.369 17.676 137.181 17.268 135.525 16.884C133.749 16.452 132.249 15.936 131.025 15.336C129.801 14.712 128.877 13.908 128.253 12.924C127.629 11.94 127.317 10.692 127.317 9.18C127.317 7.596 127.725 6.192 128.541 4.968C129.357 3.744 130.497 2.796 131.961 2.124C133.425 1.428 135.117 1.08 137.037 1.08C139.533 1.08 141.573 1.716 143.157 2.988C144.741 4.26 145.653 6 145.893 8.208L140.745 9.072C140.553 8.088 140.109 7.332 139.413 6.804C138.717 6.252 137.841 5.976 136.785 5.976C135.729 5.976 134.877 6.228 134.229 6.732C133.581 7.212 133.257 7.872 133.257 8.712C133.257 9.48 133.569 10.104 134.193 10.584C134.817 11.04 135.957 11.472 137.613 11.88C139.365 12.312 140.877 12.804 142.149 13.356C143.421 13.884 144.393 14.616 145.065 15.552C145.761 16.488 146.109 17.76 146.109 19.368C146.109 20.928 145.689 22.308 144.849 23.508C144.009 24.708 142.821 25.644 141.285 26.316C139.773 26.988 138.009 27.324 135.993 27.324ZM148.976 27V0.36H154.484L154.52 8.676L154.232 12.528C154.976 11.208 155.924 10.188 157.076 9.468C158.252 8.748 159.548 8.388 160.964 8.388C163.148 8.388 164.78 9.132 165.86 10.62C166.94 12.084 167.468 14.196 167.444 16.956L167.372 27H161.864L161.936 17.352C161.96 16.104 161.768 15.156 161.36 14.508C160.976 13.836 160.352 13.5 159.488 13.5C158.768 13.5 158.108 13.716 157.508 14.148C156.908 14.556 156.38 15.264 155.924 16.272C155.492 17.28 155.144 18.66 154.88 20.412C154.616 22.164 154.472 24.36 154.448 27H148.976ZM180.369 8.388C183.225 8.388 185.457 9.204 187.065 10.836C188.697 12.468 189.513 14.676 189.513 17.46C189.513 19.356 189.105 21.048 188.289 22.536C187.473 24.024 186.321 25.2 184.833 26.064C183.345 26.928 181.593 27.36 179.577 27.36C176.745 27.36 174.513 26.544 172.881 24.912C171.273 23.28 170.469 21.084 170.469 18.324C170.469 16.404 170.877 14.7 171.693 13.212C172.509 11.724 173.661 10.548 175.149 9.684C176.637 8.82 178.377 8.388 180.369 8.388ZM179.829 22.572C181.053 22.572 182.025 22.116 182.745 21.204C183.489 20.268 183.861 19.02 183.861 17.46C183.861 16.116 183.537 15.072 182.889 14.328C182.241 13.56 181.353 13.176 180.225 13.176C178.977 13.176 177.981 13.644 177.237 14.58C176.517 15.492 176.157 16.728 176.157 18.288C176.157 19.632 176.469 20.688 177.093 21.456C177.741 22.2 178.653 22.572 179.829 22.572ZM192.851 34.2V8.676H198.395L198.215 11.484C199.535 9.42 201.491 8.388 204.083 8.388C205.715 8.388 207.107 8.76 208.259 9.504C209.411 10.248 210.287 11.28 210.887 12.6C211.487 13.92 211.787 15.432 211.787 17.136C211.787 19.176 211.367 20.964 210.527 22.5C209.687 24.036 208.559 25.236 207.143 26.1C205.727 26.94 204.143 27.36 202.391 27.36C201.551 27.36 200.783 27.24 200.087 27C199.415 26.76 198.815 26.424 198.287 25.992L198.359 27V34.2H192.851ZM201.815 22.572C203.135 22.572 204.179 22.08 204.947 21.096C205.715 20.088 206.099 18.816 206.099 17.28C206.099 15.984 205.799 14.976 205.199 14.256C204.623 13.536 203.831 13.176 202.823 13.176C201.599 13.176 200.543 13.68 199.655 14.688C198.791 15.696 198.359 17.016 198.359 18.648C198.359 19.848 198.671 20.808 199.295 21.528C199.919 22.224 200.759 22.572 201.815 22.572Z" fill="#E0E0E0"/>
</svg>
