<svg width="136" height="21" viewBox="0 0 136 21" fill="none" xmlns="http://www.w3.org/2000/svg">
<path d="M4.2 13.824L0.344 10.144L4.2 6.48H6.04L2.168 10.144L6.04 13.824H4.2ZM127.313 0.927999L122.929 18.72H121.489L125.857 0.927999H127.313ZM129.754 6.48H131.594L135.466 10.144L131.594 13.824H129.754L133.626 10.144L129.754 6.48Z" fill="url(#paint0_linear_2_55)"/>
<path d="M10.563 8.864C10.8617 8.34133 11.299 7.91467 11.875 7.584C12.451 7.25333 13.107 7.088 13.843 7.088C14.6323 7.088 15.3417 7.27467 15.971 7.648C16.6003 8.02133 17.0963 8.54933 17.459 9.232C17.8217 9.904 18.003 10.688 18.003 11.584C18.003 12.4693 17.8217 13.2587 17.459 13.952C17.0963 14.6453 16.595 15.184 15.955 15.568C15.3257 15.952 14.6217 16.144 13.843 16.144C13.0857 16.144 12.419 15.9787 11.843 15.648C11.2777 15.3173 10.851 14.896 10.563 14.384V16H9.107V4.16H10.563V8.864ZM16.515 11.584C16.515 10.9227 16.3817 10.3467 16.115 9.856C15.8483 9.36533 15.4857 8.992 15.027 8.736C14.579 8.48 14.083 8.352 13.539 8.352C13.0057 8.352 12.5097 8.48533 12.051 8.752C11.603 9.008 11.2403 9.38667 10.963 9.888C10.6963 10.3787 10.563 10.9493 10.563 11.6C10.563 12.2613 10.6963 12.8427 10.963 13.344C11.2403 13.8347 11.603 14.2133 12.051 14.48C12.5097 14.736 13.0057 14.864 13.539 14.864C14.083 14.864 14.579 14.736 15.027 14.48C15.4857 14.2133 15.8483 13.8347 16.115 13.344C16.3817 12.8427 16.515 12.256 16.515 11.584ZM27.4715 7.232L22.1915 20.128H20.6875L22.4155 15.904L18.8795 7.232H20.4955L23.2475 14.336L25.9675 7.232H27.4715ZM37.8951 16.608V17.952H29.3831V16.608H37.8951ZM40.1255 11.584C40.1255 10.688 40.3068 9.904 40.6695 9.232C41.0322 8.54933 41.5282 8.02133 42.1575 7.648C42.7975 7.27467 43.5122 7.088 44.3015 7.088C44.9842 7.088 45.6188 7.248 46.2055 7.568C46.7922 7.87733 47.2402 8.288 47.5495 8.8V4.16H49.0215V16H47.5495V14.352C47.2615 14.8747 46.8348 15.3067 46.2695 15.648C45.7042 15.9787 45.0428 16.144 44.2855 16.144C43.5068 16.144 42.7975 15.952 42.1575 15.568C41.5282 15.184 41.0322 14.6453 40.6695 13.952C40.3068 13.2587 40.1255 12.4693 40.1255 11.584ZM47.5495 11.6C47.5495 10.9387 47.4162 10.3627 47.1495 9.872C46.8828 9.38133 46.5202 9.008 46.0615 8.752C45.6135 8.48533 45.1175 8.352 44.5735 8.352C44.0295 8.352 43.5335 8.48 43.0855 8.736C42.6375 8.992 42.2802 9.36533 42.0135 9.856C41.7468 10.3467 41.6135 10.9227 41.6135 11.584C41.6135 12.256 41.7468 12.8427 42.0135 13.344C42.2802 13.8347 42.6375 14.2133 43.0855 14.48C43.5335 14.736 44.0295 14.864 44.5735 14.864C45.1175 14.864 45.6135 14.736 46.0615 14.48C46.5202 14.2133 46.8828 13.8347 47.1495 13.344C47.4162 12.8427 47.5495 12.2613 47.5495 11.6ZM52.234 5.808C51.9567 5.808 51.722 5.712 51.53 5.52C51.338 5.328 51.242 5.09333 51.242 4.816C51.242 4.53867 51.338 4.304 51.53 4.112C51.722 3.92 51.9567 3.824 52.234 3.824C52.5007 3.824 52.7247 3.92 52.906 4.112C53.098 4.304 53.194 4.53867 53.194 4.816C53.194 5.09333 53.098 5.328 52.906 5.52C52.7247 5.712 52.5007 5.808 52.234 5.808ZM52.938 7.232V16H51.482V7.232H52.938ZM59.2435 16.144C58.4222 16.144 57.6755 15.9573 57.0035 15.584C56.3422 15.2107 55.8195 14.6827 55.4355 14C55.0622 13.3067 54.8755 12.5067 54.8755 11.6C54.8755 10.704 55.0675 9.91467 55.4515 9.232C55.8462 8.53867 56.3795 8.01067 57.0515 7.648C57.7235 7.27467 58.4755 7.088 59.3075 7.088C60.1395 7.088 60.8915 7.27467 61.5635 7.648C62.2355 8.01067 62.7635 8.53333 63.1475 9.216C63.5422 9.89867 63.7395 10.6933 63.7395 11.6C63.7395 12.5067 63.5368 13.3067 63.1315 14C62.7368 14.6827 62.1982 15.2107 61.5155 15.584C60.8328 15.9573 60.0755 16.144 59.2435 16.144ZM59.2435 14.864C59.7662 14.864 60.2568 14.7413 60.7155 14.496C61.1742 14.2507 61.5422 13.8827 61.8195 13.392C62.1075 12.9013 62.2515 12.304 62.2515 11.6C62.2515 10.896 62.1128 10.2987 61.8355 9.808C61.5582 9.31733 61.1955 8.95467 60.7475 8.72C60.2995 8.47467 59.8142 8.352 59.2915 8.352C58.7582 8.352 58.2675 8.47467 57.8195 8.72C57.3822 8.95467 57.0302 9.31733 56.7635 9.808C56.4968 10.2987 56.3635 10.896 56.3635 11.6C56.3635 12.3147 56.4915 12.9173 56.7475 13.408C57.0142 13.8987 57.3662 14.2667 57.8035 14.512C58.2408 14.7467 58.7208 14.864 59.2435 14.864ZM69.2699 7.088C70.0272 7.088 70.6885 7.25333 71.2539 7.584C71.8299 7.91467 72.2565 8.33067 72.5339 8.832V7.232H74.0059V16.192C74.0059 16.992 73.8352 17.7013 73.4939 18.32C73.1525 18.9493 72.6619 19.44 72.0219 19.792C71.3925 20.144 70.6565 20.32 69.8139 20.32C68.6619 20.32 67.7019 20.048 66.9339 19.504C66.1659 18.96 65.7125 18.2187 65.5739 17.28H67.0139C67.1739 17.8133 67.5045 18.24 68.0059 18.56C68.5072 18.8907 69.1099 19.056 69.8139 19.056C70.6139 19.056 71.2645 18.8053 71.7659 18.304C72.2779 17.8027 72.5339 17.0987 72.5339 16.192V14.352C72.2459 14.864 71.8192 15.2907 71.2539 15.632C70.6885 15.9733 70.0272 16.144 69.2699 16.144C68.4912 16.144 67.7819 15.952 67.1419 15.568C66.5125 15.184 66.0165 14.6453 65.6539 13.952C65.2912 13.2587 65.1099 12.4693 65.1099 11.584C65.1099 10.688 65.2912 9.904 65.6539 9.232C66.0165 8.54933 66.5125 8.02133 67.1419 7.648C67.7819 7.27467 68.4912 7.088 69.2699 7.088ZM72.5339 11.6C72.5339 10.9387 72.4005 10.3627 72.1339 9.872C71.8672 9.38133 71.5045 9.008 71.0459 8.752C70.5979 8.48533 70.1019 8.352 69.5579 8.352C69.0139 8.352 68.5179 8.48 68.0699 8.736C67.6219 8.992 67.2645 9.36533 66.9979 9.856C66.7312 10.3467 66.5979 10.9227 66.5979 11.584C66.5979 12.256 66.7312 12.8427 66.9979 13.344C67.2645 13.8347 67.6219 14.2133 68.0699 14.48C68.5179 14.736 69.0139 14.864 69.5579 14.864C70.1019 14.864 70.5979 14.736 71.0459 14.48C71.5045 14.2133 71.8672 13.8347 72.1339 13.344C72.4005 12.8427 72.5339 12.2613 72.5339 11.6ZM80.2904 16.144C79.469 16.144 78.7224 15.9573 78.0504 15.584C77.389 15.2107 76.8664 14.6827 76.4824 14C76.109 13.3067 75.9224 12.5067 75.9224 11.6C75.9224 10.704 76.1144 9.91467 76.4984 9.232C76.893 8.53867 77.4264 8.01067 78.0984 7.648C78.7704 7.27467 79.5224 7.088 80.3544 7.088C81.1864 7.088 81.9384 7.27467 82.6104 7.648C83.2824 8.01067 83.8104 8.53333 84.1944 9.216C84.589 9.89867 84.7864 10.6933 84.7864 11.6C84.7864 12.5067 84.5837 13.3067 84.1784 14C83.7837 14.6827 83.245 15.2107 82.5624 15.584C81.8797 15.9573 81.1224 16.144 80.2904 16.144ZM80.2904 14.864C80.813 14.864 81.3037 14.7413 81.7624 14.496C82.221 14.2507 82.589 13.8827 82.8664 13.392C83.1544 12.9013 83.2984 12.304 83.2984 11.6C83.2984 10.896 83.1597 10.2987 82.8824 9.808C82.605 9.31733 82.2424 8.95467 81.7944 8.72C81.3464 8.47467 80.861 8.352 80.3384 8.352C79.805 8.352 79.3144 8.47467 78.8664 8.72C78.429 8.95467 78.077 9.31733 77.8104 9.808C77.5437 10.2987 77.4104 10.896 77.4104 11.6C77.4104 12.3147 77.5384 12.9173 77.7944 13.408C78.061 13.8987 78.413 14.2667 78.8504 14.512C79.2877 14.7467 79.7677 14.864 80.2904 14.864ZM88.1568 4.16V16H86.7008V4.16H88.1568ZM91.3903 5.808C91.1129 5.808 90.8783 5.712 90.6863 5.52C90.4943 5.328 90.3983 5.09333 90.3983 4.816C90.3983 4.53867 90.4943 4.304 90.6863 4.112C90.8783 3.92 91.1129 3.824 91.3903 3.824C91.6569 3.824 91.8809 3.92 92.0623 4.112C92.2543 4.304 92.3503 4.53867 92.3503 4.816C92.3503 5.09333 92.2543 5.328 92.0623 5.52C91.8809 5.712 91.6569 5.808 91.3903 5.808ZM92.0943 7.232V16H90.6383V7.232H92.0943ZM105.12 7.072C105.802 7.072 106.41 7.216 106.944 7.504C107.477 7.78133 107.898 8.20267 108.208 8.768C108.517 9.33333 108.672 10.0213 108.672 10.832V16H107.232V11.04C107.232 10.1653 107.013 9.49867 106.576 9.04C106.149 8.57067 105.568 8.336 104.832 8.336C104.074 8.336 103.472 8.58133 103.024 9.072C102.576 9.552 102.352 10.2507 102.352 11.168V16H100.912V11.04C100.912 10.1653 100.693 9.49867 100.256 9.04C99.8291 8.57067 99.2478 8.336 98.5118 8.336C97.7544 8.336 97.1518 8.58133 96.7038 9.072C96.2558 9.552 96.0318 10.2507 96.0318 11.168V16H94.5758V7.232H96.0318V8.496C96.3198 8.03733 96.7038 7.68533 97.1838 7.44C97.6744 7.19467 98.2131 7.072 98.7998 7.072C99.5358 7.072 100.186 7.23733 100.752 7.568C101.317 7.89867 101.738 8.384 102.016 9.024C102.261 8.40533 102.666 7.92533 103.232 7.584C103.797 7.24267 104.426 7.072 105.12 7.072ZM110.516 11.584C110.516 10.688 110.697 9.904 111.06 9.232C111.423 8.54933 111.919 8.02133 112.548 7.648C113.188 7.27467 113.897 7.088 114.676 7.088C115.444 7.088 116.111 7.25333 116.676 7.584C117.241 7.91467 117.663 8.33067 117.94 8.832V7.232H119.412V16H117.94V14.368C117.652 14.88 117.22 15.3067 116.644 15.648C116.079 15.9787 115.417 16.144 114.66 16.144C113.881 16.144 113.177 15.952 112.548 15.568C111.919 15.184 111.423 14.6453 111.06 13.952C110.697 13.2587 110.516 12.4693 110.516 11.584ZM117.94 11.6C117.94 10.9387 117.807 10.3627 117.54 9.872C117.273 9.38133 116.911 9.008 116.452 8.752C116.004 8.48533 115.508 8.352 114.964 8.352C114.42 8.352 113.924 8.48 113.476 8.736C113.028 8.992 112.671 9.36533 112.404 9.856C112.137 10.3467 112.004 10.9227 112.004 11.584C112.004 12.256 112.137 12.8427 112.404 13.344C112.671 13.8347 113.028 14.2133 113.476 14.48C113.924 14.736 114.42 14.864 114.964 14.864C115.508 14.864 116.004 14.736 116.452 14.48C116.911 14.2133 117.273 13.8347 117.54 13.344C117.807 12.8427 117.94 12.2613 117.94 11.6Z" fill="white"/>
<defs>
<linearGradient id="paint0_linear_2_55" x1="68" y1="-2.00003" x2="46.8708" y2="38.6696" gradientUnits="userSpaceOnUse">
<stop stop-color="#667EEA"/>
<stop offset="1" stop-color="#764BA2"/>
</linearGradient>
</defs>
</svg>
