<svg width="236" height="49" viewBox="0 0 236 49" fill="none" xmlns="http://www.w3.org/2000/svg">
<path d="M29.84 40.968V48.84H0.08V40.968H29.84Z" fill="url(#paint0_linear_35_913)"/>
<path d="M48.6211 39.336C46.1571 39.336 43.9491 38.936 41.9971 38.136C40.0451 37.336 38.4771 36.152 37.2931 34.584C36.1411 33.016 35.5331 31.128 35.4691 28.92H44.2051C44.3331 30.168 44.7651 31.128 45.5011 31.8C46.2371 32.44 47.1971 32.76 48.3811 32.76C49.5971 32.76 50.5571 32.488 51.2611 31.944C51.9651 31.368 52.3171 30.584 52.3171 29.592C52.3171 28.76 52.0291 28.072 51.4531 27.528C50.9091 26.984 50.2211 26.536 49.3891 26.184C48.5891 25.832 47.4371 25.432 45.9331 24.984C43.7571 24.312 41.9811 23.64 40.6051 22.968C39.2291 22.296 38.0451 21.304 37.0531 19.992C36.0611 18.68 35.5651 16.968 35.5651 14.856C35.5651 11.72 36.7011 9.272 38.9731 7.512C41.2451 5.72 44.2051 4.824 47.8531 4.824C51.5651 4.824 54.5571 5.72 56.8291 7.512C59.1011 9.272 60.3171 11.736 60.4771 14.904H51.5971C51.5331 13.816 51.1331 12.968 50.3971 12.36C49.6611 11.72 48.7171 11.4 47.5651 11.4C46.5731 11.4 45.7731 11.672 45.1651 12.216C44.5571 12.728 44.2531 13.48 44.2531 14.472C44.2531 15.56 44.7651 16.408 45.7891 17.016C46.8131 17.624 48.4131 18.28 50.5891 18.984C52.7651 19.72 54.5251 20.424 55.8691 21.096C57.2451 21.768 58.4291 22.744 59.4211 24.024C60.4131 25.304 60.9091 26.952 60.9091 28.968C60.9091 30.888 60.4131 32.632 59.4211 34.2C58.4611 35.768 57.0531 37.016 55.1971 37.944C53.3411 38.872 51.1491 39.336 48.6211 39.336ZM70.0884 9.432C68.6484 9.432 67.4644 9.016 66.5364 8.184C65.6404 7.32 65.1924 6.264 65.1924 5.016C65.1924 3.736 65.6404 2.68 66.5364 1.848C67.4644 0.983997 68.6484 0.551997 70.0884 0.551997C71.4964 0.551997 72.6484 0.983997 73.5444 1.848C74.4724 2.68 74.9364 3.736 74.9364 5.016C74.9364 6.264 74.4724 7.32 73.5444 8.184C72.6484 9.016 71.4964 9.432 70.0884 9.432ZM74.1684 12.216V39H65.9604V12.216H74.1684ZM95.9566 39L90.8206 31.56L86.5006 39H77.6206L86.4526 25.32L77.3806 12.216H86.5966L91.7326 19.608L96.0526 12.216H104.933L95.9566 25.704L105.173 39H95.9566ZM116.875 25.608C116.875 22.824 117.435 20.392 118.555 18.312C119.707 16.232 121.291 14.632 123.307 13.512C125.355 12.392 127.691 11.832 130.315 11.832C133.675 11.832 136.475 12.712 138.715 14.472C140.987 16.232 142.475 18.712 143.179 21.912H134.443C133.707 19.864 132.283 18.84 130.171 18.84C128.667 18.84 127.467 19.432 126.571 20.616C125.675 21.768 125.227 23.432 125.227 25.608C125.227 27.784 125.675 29.464 126.571 30.648C127.467 31.8 128.667 32.376 130.171 32.376C132.283 32.376 133.707 31.352 134.443 29.304H143.179C142.475 32.44 140.987 34.904 138.715 36.696C136.443 38.488 133.643 39.384 130.315 39.384C127.691 39.384 125.355 38.824 123.307 37.704C121.291 36.584 119.707 34.984 118.555 32.904C117.435 30.824 116.875 28.392 116.875 25.608ZM159.762 39.384C157.138 39.384 154.77 38.824 152.658 37.704C150.578 36.584 148.93 34.984 147.714 32.904C146.53 30.824 145.938 28.392 145.938 25.608C145.938 22.856 146.546 20.44 147.762 18.36C148.978 16.248 150.642 14.632 152.754 13.512C154.866 12.392 157.234 11.832 159.858 11.832C162.482 11.832 164.85 12.392 166.962 13.512C169.074 14.632 170.738 16.248 171.954 18.36C173.17 20.44 173.778 22.856 173.778 25.608C173.778 28.36 173.154 30.792 171.906 32.904C170.69 34.984 169.01 36.584 166.866 37.704C164.754 38.824 162.386 39.384 159.762 39.384ZM159.762 32.28C161.33 32.28 162.658 31.704 163.746 30.552C164.866 29.4 165.426 27.752 165.426 25.608C165.426 23.464 164.882 21.816 163.794 20.664C162.738 19.512 161.426 18.936 159.858 18.936C158.258 18.936 156.93 19.512 155.874 20.664C154.818 21.784 154.29 23.432 154.29 25.608C154.29 27.752 154.802 29.4 155.826 30.552C156.882 31.704 158.194 32.28 159.762 32.28ZM176.5 25.56C176.5 22.808 177.012 20.392 178.036 18.312C179.092 16.232 180.516 14.632 182.308 13.512C184.1 12.392 186.1 11.832 188.308 11.832C190.068 11.832 191.668 12.2 193.108 12.936C194.58 13.672 195.732 14.664 196.564 15.912V3.48H204.772V39H196.564V35.16C195.796 36.44 194.692 37.464 193.252 38.232C191.844 39 190.196 39.384 188.308 39.384C186.1 39.384 184.1 38.824 182.308 37.704C180.516 36.552 179.092 34.936 178.036 32.856C177.012 30.744 176.5 28.312 176.5 25.56ZM196.564 25.608C196.564 23.56 195.988 21.944 194.836 20.76C193.716 19.576 192.34 18.984 190.708 18.984C189.076 18.984 187.684 19.576 186.532 20.76C185.412 21.912 184.852 23.512 184.852 25.56C184.852 27.608 185.412 29.24 186.532 30.456C187.684 31.64 189.076 32.232 190.708 32.232C192.34 32.232 193.716 31.64 194.836 30.456C195.988 29.272 196.564 27.656 196.564 25.608ZM235.958 25.176C235.958 25.944 235.91 26.744 235.814 27.576H217.238C217.366 29.24 217.894 30.52 218.822 31.416C219.782 32.28 220.95 32.712 222.326 32.712C224.374 32.712 225.798 31.848 226.598 30.12H235.334C234.886 31.88 234.07 33.464 232.886 34.872C231.734 36.28 230.278 37.384 228.518 38.184C226.758 38.984 224.79 39.384 222.614 39.384C219.99 39.384 217.654 38.824 215.606 37.704C213.558 36.584 211.958 34.984 210.806 32.904C209.654 30.824 209.078 28.392 209.078 25.608C209.078 22.824 209.638 20.392 210.758 18.312C211.91 16.232 213.51 14.632 215.558 13.512C217.606 12.392 219.958 11.832 222.614 11.832C225.206 11.832 227.51 12.376 229.526 13.464C231.542 14.552 233.11 16.104 234.23 18.12C235.382 20.136 235.958 22.488 235.958 25.176ZM227.558 23.016C227.558 21.608 227.078 20.488 226.118 19.656C225.158 18.824 223.958 18.408 222.518 18.408C221.142 18.408 219.974 18.808 219.014 19.608C218.086 20.408 217.51 21.544 217.286 23.016H227.558Z" fill="white"/>
<defs>
<linearGradient id="paint0_linear_35_913" x1="117" y1="-14.0001" x2="40.0648" y2="72.5618" gradientUnits="userSpaceOnUse">
<stop stop-color="#667EEA"/>
<stop offset="1" stop-color="#764BA2"/>
</linearGradient>
</defs>
</svg>
