<svg width="39" height="50" viewBox="0 0 39 50" fill="none" xmlns="http://www.w3.org/2000/svg">
<path d="M34.3796 2.53657C33.9533 1.20494 32.7598 0.257004 31.3532 0.257004H7.9095C6.50288 0.257004 5.33069 1.20494 4.88313 2.53657L0.684571 15.3337C0.535384 15.8077 0.450134 16.3043 0.450134 16.8234V32.9835C0.450134 34.8568 1.87807 36.369 3.647 36.369C5.41594 36.369 6.84388 34.8568 6.84388 32.9835V31.855H32.4188V32.9835C32.4188 34.8342 33.8468 36.369 35.6157 36.369C37.3633 36.369 38.8126 34.8568 38.8126 32.9835V16.8234C38.8126 16.3268 38.7273 15.8077 38.5781 15.3337L34.3796 2.53657ZM7.9095 25.084C6.14056 25.084 4.71263 23.5718 4.71263 21.6985C4.71263 19.8252 6.14056 18.313 7.9095 18.313C9.67843 18.313 11.1064 19.8252 11.1064 21.6985C11.1064 23.5718 9.67843 25.084 7.9095 25.084ZM31.3532 25.084C29.5843 25.084 28.1563 23.5718 28.1563 21.6985C28.1563 19.8252 29.5843 18.313 31.3532 18.313C33.1222 18.313 34.5501 19.8252 34.5501 21.6985C34.5501 23.5718 33.1222 25.084 31.3532 25.084ZM4.71263 13.799L7.41931 5.17726C7.71769 4.27446 8.52756 3.6425 9.444 3.6425H29.8187C30.7352 3.6425 31.545 4.27446 31.8434 5.17726L34.5501 13.799H4.71263Z" fill="black"/>
<path d="M8.97512 43.14H17.5001V38.626L30.2876 45.397H21.7626V49.9109L8.97512 43.14Z" fill="black"/>
</svg>
