<svg width="152" height="44" viewBox="0 0 152 44" fill="none" xmlns="http://www.w3.org/2000/svg">
<path d="M116.334 7.49621C92.7185 -0.547522 47.3086 0.813405 23.9995 7.85201C13.3838 11.0577 -6.19099 20.3462 5.72038 29.1155C7.82124 30.6624 10.3749 31.919 13.017 33.0063C42.0946 44.9723 82.6501 43.7538 113.857 36.5937C118.511 35.526 123.091 34.2582 127.304 32.5354C130.456 31.2467 133.502 29.6496 135.956 27.7858C143.14 22.3293 141.264 16.838 133.535 12.2121C124.573 6.84874 112.319 5.18662 100.756 4.27632C90.6449 3.48035 80.5464 3.32749 70.3876 3.6524C51.3356 4.2615 29.3793 5.23076 13.4001 12.5635C6.42088 15.7664 -1.07741 22.6104 4.90506 28.1495C11.3878 34.1518 26.6735 36.0953 36.9548 37.362C64.6905 40.7789 108.576 39.0847 133.84 30.1178C136.564 29.1509 139.324 28.2498 141.761 26.9783C143.686 25.9735 145.53 24.8278 147.13 23.5879C158.465 14.8012 133.172 9.27657 124.251 8.3279C96.1895 5.34322 54.6566 1.03614 28.813 8.97584" stroke="#FF8A00" stroke-width="2.30769" stroke-miterlimit="1.5" stroke-linecap="round" stroke-linejoin="round"/>
</svg>
