<svg width="17" height="17" viewBox="0 0 17 17" fill="none" xmlns="http://www.w3.org/2000/svg">
<path d="M8.4645 14.3614L3.52388 11.4395V5.68429L8.49992 2.727L13.476 5.68429V11.4395L8.4645 14.3614ZM7.96867 12.8208V8.85408L4.60409 6.92388V10.802L7.96867 12.8208ZM9.03117 12.8208L12.4135 10.802V6.92388L9.03117 8.85408V12.8208ZM0.708252 4.05513V0.708252H4.05513V1.77075H1.77075V4.05513H0.708252ZM4.05513 16.2916H0.708252V12.9447H1.77075V15.2291H4.05513V16.2916ZM12.9447 16.2208V15.1583H15.2291V12.8739H16.2916V16.2208H12.9447ZM15.2291 4.05513V1.77075H12.9447V0.708252H16.2916V4.05513H15.2291ZM8.49992 7.89783L11.8645 5.94992L8.49992 4.01971L5.13533 5.94992L8.49992 7.89783Z" fill="#867261"/>
</svg>
