<svg width="40" height="39" viewBox="0 0 40 39" fill="none" xmlns="http://www.w3.org/2000/svg">
<g clip-path="url(#clip0_29_50)">
<path d="M39.2 19.8105C39.2 9.22473 30.6032 0.64209 20 0.64209C9.39679 0.64209 0.799988 9.22473 0.799988 19.8105C0.799988 29.3779 7.81999 37.3076 17 38.7452V25.3513H12.1244V19.8081H17V15.5886C17 10.7846 19.868 8.12973 24.2528 8.12973C26.3528 8.12973 28.55 8.50591 28.55 8.50591V13.2225H26.1284C23.7428 13.2225 22.9988 14.6997 22.9988 16.2164V19.8105H28.3232L27.4712 25.3525H23V38.7464C32.1788 37.3076 39.2 29.3767 39.2 19.8105Z" fill="white"/>
</g>
<defs>
<clipPath id="clip0_29_50">
<rect x="0.799988" y="0.524902" width="38.4" height="38.3367" fill="white"/>
</clipPath>
</defs>
</svg>
