<svg width="18" height="12" viewBox="0 0 18 12" fill="none" xmlns="http://www.w3.org/2000/svg">
<path d="M4.2 11.9812C3.5875 11.9812 3.06562 11.7687 2.63438 11.3437C2.20312 10.9187 1.9875 10.3937 1.9875 9.76875H0.75V0H12.7313V3.13125H14.7L17.25 6.525V9.76875H15.9188C15.9188 10.3937 15.7031 10.9187 15.2719 11.3437C14.8406 11.7687 14.3187 11.9812 13.7062 11.9812C13.0938 11.9812 12.5719 11.7687 12.1406 11.3437C11.7094 10.9187 11.4937 10.3937 11.4937 9.76875H6.4125C6.4125 10.3937 6.19688 10.9187 5.76562 11.3437C5.33437 11.7687 4.8125 11.9812 4.2 11.9812ZM4.2 10.8562C4.5 10.8562 4.75625 10.75 4.96875 10.5375C5.18125 10.325 5.2875 10.0687 5.2875 9.76875C5.2875 9.46875 5.18125 9.2125 4.96875 9C4.75625 8.7875 4.5 8.68125 4.2 8.68125C3.9 8.68125 3.64375 8.7875 3.43125 9C3.21875 9.2125 3.1125 9.46875 3.1125 9.76875C3.1125 10.0687 3.21875 10.325 3.43125 10.5375C3.64375 10.75 3.9 10.8562 4.2 10.8562ZM1.875 8.64375H2.2875C2.5 8.30625 2.76875 8.0375 3.09375 7.8375C3.41875 7.6375 3.78125 7.5375 4.18125 7.5375C4.58125 7.5375 4.94688 7.64062 5.27812 7.84687C5.60938 8.05312 5.88125 8.31875 6.09375 8.64375H11.6063V1.125H1.875V8.64375ZM13.7062 10.8562C14.0062 10.8562 14.2625 10.75 14.475 10.5375C14.6875 10.325 14.7938 10.0687 14.7938 9.76875C14.7938 9.46875 14.6875 9.2125 14.475 9C14.2625 8.7875 14.0062 8.68125 13.7062 8.68125C13.4062 8.68125 13.15 8.7875 12.9375 9C12.725 9.2125 12.6188 9.46875 12.6188 9.76875C12.6188 10.0687 12.725 10.325 12.9375 10.5375C13.15 10.75 13.4062 10.8562 13.7062 10.8562ZM12.7313 7.03125H16.2188L14.1375 4.25625H12.7313V7.03125Z" fill="#867261"/>
</svg>
