<svg width="22" height="22" viewBox="0 0 22 22" fill="none" xmlns="http://www.w3.org/2000/svg">
<path d="M14.651 15.799L9.99896 11.2073V4.74271H11.8115V10.4521L15.95 14.5L14.651 15.799ZM10.9656 21.75C9.45521 21.75 8.03542 21.463 6.70625 20.8891C5.37708 20.3151 4.21406 19.5347 3.21719 18.5479C2.22031 17.5611 1.4349 16.4031 0.860938 15.074C0.286979 13.7448 0 12.325 0 10.8146C0 9.30417 0.286979 7.89444 0.860938 6.58542C1.4349 5.27639 2.22031 4.13351 3.21719 3.15677C4.21406 2.18004 5.37708 1.40972 6.70625 0.845833C8.03542 0.281945 9.45521 0 10.9656 0C12.5767 0 14.1023 0.352431 15.5422 1.05729C16.9821 1.76215 18.2257 2.72882 19.2729 3.95729V0.755208H21.0854V7.03854H14.7719V5.22604H17.9438C17.0576 4.19896 16.0155 3.37326 14.8172 2.74896C13.6189 2.12465 12.3351 1.8125 10.9656 1.8125C8.44826 1.8125 6.2934 2.67344 4.50104 4.39531C2.70868 6.11719 1.8125 8.22674 1.8125 10.724C1.8125 13.2816 2.69861 15.4566 4.47083 17.249C6.24306 19.0413 8.40799 19.9375 10.9656 19.9375C13.483 19.9375 15.6076 19.0514 17.3396 17.2792C19.0715 15.5069 19.9375 13.3622 19.9375 10.8448H21.75C21.75 13.8656 20.7028 16.4384 18.6083 18.563C16.5139 20.6877 13.9663 21.75 10.9656 21.75Z" fill="#FF8A00"/>
</svg>
