<svg width="25" height="25" viewBox="0 0 25 25" fill="none" xmlns="http://www.w3.org/2000/svg">
<path d="M16.6719 17.9781L11.3781 12.7531V5.39688H13.4406V11.8937L18.15 16.5L16.6719 17.9781ZM12.4781 24.75C10.7594 24.75 9.14375 24.4234 7.63125 23.7703C6.11875 23.1172 4.79531 22.2292 3.66094 21.1063C2.52656 19.9833 1.63281 18.6656 0.979688 17.1531C0.326563 15.6406 0 14.025 0 12.3062C0 10.5875 0.326563 8.98333 0.979688 7.49375C1.63281 6.00417 2.52656 4.70365 3.66094 3.59219C4.79531 2.48073 6.11875 1.60417 7.63125 0.9625C9.14375 0.320833 10.7594 0 12.4781 0C14.3115 0 16.0474 0.401042 17.6859 1.20312C19.3245 2.00521 20.7396 3.10521 21.9313 4.50313V0.859375H23.9938V8.00937H16.8094V5.94687H20.4188C19.4104 4.77812 18.2245 3.83854 16.8609 3.12813C15.4974 2.41771 14.0365 2.0625 12.4781 2.0625C9.61354 2.0625 7.16146 3.04219 5.12187 5.00156C3.08229 6.96094 2.0625 9.36146 2.0625 12.2031C2.0625 15.1135 3.07083 17.5885 5.0875 19.6281C7.10417 21.6677 9.56771 22.6875 12.4781 22.6875C15.3427 22.6875 17.7604 21.6792 19.7313 19.6625C21.7021 17.6458 22.6875 15.2052 22.6875 12.3406H24.75C24.75 15.7781 23.5583 18.7057 21.175 21.1234C18.7917 23.5411 15.8927 24.75 12.4781 24.75Z" fill="#0085FF"/>
</svg>
