<svg width="39" height="39" viewBox="0 0 39 39" fill="none" xmlns="http://www.w3.org/2000/svg">
<path d="M19.4 0.524902C14.1835 0.524902 13.532 0.548863 11.4848 0.639913C9.43995 0.735754 8.04795 1.05682 6.82395 1.53124C5.54227 2.01194 4.38122 2.7663 3.42195 3.74159C2.44421 4.69859 1.68847 5.85793 1.20795 7.13799C0.732751 8.35997 0.409951 9.74968 0.315151 11.7911C0.219151 13.8361 0.199951 14.4867 0.199951 19.6933C0.199951 24.9011 0.223951 25.5516 0.315151 27.5954C0.411151 29.6357 0.732751 31.0266 1.20795 32.2486C1.68986 33.5279 2.44541 34.687 3.42195 35.6449C4.38097 36.6205 5.5421 37.3749 6.82395 37.8553C8.04915 38.3285 9.44115 38.652 11.4848 38.7466C13.5332 38.8425 14.1848 38.8616 19.4 38.8616C24.6164 38.8616 25.268 38.8377 27.3152 38.7466C29.3587 38.6508 30.7519 38.3273 31.9759 37.8553C33.2571 37.3736 34.418 36.6194 35.3779 35.6449C36.3555 34.6878 37.1112 33.5285 37.5919 32.2486C38.0659 31.0266 38.3899 29.6357 38.4847 27.5954C38.5807 25.5504 38.5999 24.8999 38.5999 19.6933C38.5999 14.4855 38.5759 13.8349 38.4847 11.7911C38.3887 9.75088 38.0647 8.35877 37.5919 7.13799C37.1098 5.85874 36.3543 4.69972 35.3779 3.74159C34.4196 2.76513 33.2583 2.01059 31.9759 1.53124C30.7519 1.05682 29.3587 0.734556 27.3152 0.639913C25.2668 0.544071 24.6152 0.524902 19.4 0.524902ZM19.4 3.97521C24.524 3.97521 25.1359 4.00037 27.1603 4.08902C29.0323 4.17648 30.0476 4.48676 30.7232 4.75153C31.6231 5.09895 32.2591 5.51347 32.9347 6.18317C33.6043 6.85406 34.0207 7.49141 34.3675 8.38873C34.6303 9.06321 34.9436 10.0779 35.0287 11.9469C35.1199 13.9679 35.1404 14.5753 35.1404 19.6933C35.1404 24.8112 35.1163 25.4198 35.0227 27.4409C34.9243 29.3098 34.6124 30.3233 34.3484 30.9978C33.9907 31.8963 33.5827 32.5313 32.9108 33.2058C32.2901 33.8401 31.5359 34.3287 30.7027 34.6362C30.0308 34.8986 28.9987 35.2113 27.1267 35.2963C25.0879 35.3874 24.4879 35.4077 19.3519 35.4077C14.2148 35.4077 13.6147 35.3838 11.5772 35.2903C9.70395 35.1921 8.67195 34.8806 7.99995 34.617C7.08915 34.26 6.46395 33.8527 5.79315 33.1818C5.15089 32.5664 4.65831 31.8123 4.35315 30.9774C4.08915 30.3066 3.77955 29.2763 3.68115 27.4073C3.60915 25.3947 3.58395 24.7729 3.58395 19.6693C3.58395 14.5645 3.60915 13.9416 3.68115 11.9049C3.77955 10.036 4.08915 9.0069 4.35315 8.33601C4.68915 7.42551 5.11995 6.80254 5.79315 6.13045C6.46395 5.46076 7.08915 5.02947 7.99995 4.69402C8.67195 4.43046 9.68115 4.11897 11.5532 4.02313C13.5932 3.95125 14.1932 3.92729 19.3279 3.92729L19.4 3.97521ZM19.4 9.85031C18.1052 9.85016 16.8231 10.1046 15.6268 10.5992C14.4306 11.0938 13.3436 11.8189 12.4281 12.7329C11.5125 13.6469 10.7863 14.7321 10.2909 15.9263C9.7955 17.1206 9.54059 18.4006 9.54075 19.6933C9.54075 25.1323 13.9568 29.5362 19.4 29.5362C24.8479 29.5362 29.2591 25.1275 29.2591 19.6933C29.2591 14.2542 24.8431 9.85031 19.4 9.85031ZM19.4 26.0835C18.5594 26.0837 17.7271 25.9185 16.9505 25.5974C16.1739 25.2763 15.4683 24.8056 14.874 24.2121C14.2797 23.6187 13.8083 22.9142 13.4868 22.1388C13.1653 21.3634 13 20.5324 13.0003 19.6933C13.0002 18.8542 13.1656 18.0233 13.4872 17.2481C13.8087 16.4729 14.2801 15.7685 14.8744 15.1752C15.4687 14.5819 16.1742 14.1113 16.9507 13.7902C17.7272 13.4692 18.5595 13.3041 19.4 13.3042C20.2404 13.3041 21.0727 13.4692 21.8492 13.7902C22.6257 14.1113 23.3312 14.5819 23.9255 15.1752C24.5198 15.7685 24.9912 16.4729 25.3127 17.2481C25.6343 18.0233 25.7997 18.8542 25.7995 19.6933C25.7997 20.5323 25.6343 21.3632 25.3127 22.1384C24.9912 22.9137 24.5198 23.6181 23.9255 24.2114C23.3312 24.8047 22.6257 25.2753 21.8492 25.5963C21.0727 25.9173 20.2404 26.0825 19.4 26.0823V26.0835ZM31.9531 9.46215C31.9531 10.7321 30.92 11.7624 29.6491 11.7624C28.3771 11.7624 27.3451 10.7309 27.3451 9.46215C27.3645 8.86495 27.6157 8.29866 28.0456 7.88302C28.4756 7.46739 29.0506 7.235 29.6491 7.235C30.2477 7.235 30.8227 7.46739 31.2527 7.88302C31.6826 8.29866 31.9338 8.86495 31.9531 9.46215Z" fill="white"/>
</svg>
