<svg width="500" height="466" viewBox="0 0 500 466" fill="none" xmlns="http://www.w3.org/2000/svg">
<path d="M215.04 397.253C193.967 397.255 173.186 392.161 154.367 382.38C135.548 372.599 119.214 358.403 106.677 340.932C94.1406 323.461 85.7499 303.202 82.1787 281.781C78.6076 260.36 79.9556 238.373 86.1145 217.587C92.2734 196.8 103.072 177.793 117.642 162.09C132.213 146.387 150.15 134.426 170.014 127.168C189.878 119.91 211.115 117.557 232.02 120.297C252.926 123.037 272.917 130.794 290.39 142.946C290.462 142.979 290.526 143.029 290.578 143.091C290.63 143.153 290.668 143.226 290.689 143.305C290.711 143.383 290.716 143.466 290.703 143.547C290.69 143.628 290.661 143.705 290.616 143.772C290.572 143.84 290.513 143.897 290.445 143.939C290.377 143.981 290.301 144.007 290.222 144.016C290.143 144.024 290.064 144.015 289.989 143.988C289.913 143.962 289.845 143.919 289.788 143.862C272.453 131.802 252.618 124.103 231.876 121.383C211.133 118.662 190.061 120.996 170.352 128.197C150.642 135.397 132.844 147.264 118.387 162.845C103.929 178.425 93.2151 197.285 87.1046 217.909C80.9942 238.534 79.6575 260.35 83.2021 281.604C86.7467 302.858 95.0737 322.959 107.514 340.292C119.955 357.626 136.163 371.709 154.837 381.412C173.511 391.114 194.131 396.165 215.04 396.16C245.375 395.985 274.763 385.25 298.444 365.695C322.125 346.141 338.71 318.912 345.512 288.42C345.655 287.682 346.715 287.977 346.572 288.686C339.839 319.488 323.151 347.012 299.25 366.74C275.348 386.469 245.653 397.229 215.04 397.253V397.253Z" fill="#0084FF"/>
<path d="M272.759 224.027L244.682 217.113L122.976 87.4473C104.156 97.1292 88.6452 112.499 78.5115 131.506L129.738 188.774L70.8046 174.295C59.1727 192.911 54.1303 212.532 56.7661 233.395L206.119 274.469L219.04 288.919C236.23 308.068 265.138 319.71 290.808 312.796C293.558 312.382 281.697 250.475 272.759 224.027Z" fill="#121212"/>
<path d="M231.456 267.322C230.969 266.79 230.167 267.528 230.626 268.06C233.132 270.942 235.832 273.637 238.705 276.127C238.817 276.199 238.95 276.226 239.079 276.204C239.209 276.182 239.327 276.112 239.411 276.008C239.495 275.904 239.539 275.771 239.536 275.636C239.532 275.5 239.481 275.37 239.392 275.27C236.56 272.827 233.907 270.17 231.456 267.322V267.322Z" fill="#CCCCCC"/>
<path d="M265.349 289.602C261.793 288.552 258.325 287.208 254.978 285.584C254.853 285.545 254.719 285.554 254.6 285.609C254.481 285.664 254.385 285.761 254.33 285.882C254.274 286.004 254.263 286.142 254.298 286.272C254.333 286.401 254.411 286.514 254.52 286.588C257.91 288.243 261.427 289.607 265.034 290.666C265.105 290.7 265.182 290.718 265.259 290.718C265.337 290.719 265.414 290.702 265.485 290.669C265.556 290.637 265.619 290.589 265.671 290.528C265.722 290.468 265.761 290.397 265.784 290.321C265.806 290.244 265.813 290.163 265.803 290.084C265.793 290.004 265.766 289.928 265.725 289.86C265.684 289.792 265.629 289.733 265.564 289.689C265.499 289.645 265.426 289.615 265.349 289.602V289.602Z" fill="#CCCCCC"/>
<path d="M144.848 233.9C154.331 236.442 155.505 236.855 155.792 236.855C155.918 236.848 156.039 236.796 156.132 236.707C156.225 236.619 156.285 236.499 156.302 236.37C156.319 236.24 156.292 236.109 156.225 235.998C156.158 235.887 156.055 235.803 155.935 235.762L145.105 232.807C145.036 232.789 144.964 232.786 144.893 232.798C144.822 232.809 144.754 232.835 144.693 232.873C144.632 232.911 144.578 232.962 144.536 233.022C144.494 233.081 144.463 233.149 144.446 233.221C144.429 233.292 144.426 233.367 144.437 233.44C144.448 233.513 144.473 233.583 144.51 233.646C144.548 233.709 144.597 233.764 144.655 233.808C144.712 233.851 144.778 233.883 144.848 233.9Z" fill="#CCCCCC"/>
<path d="M116.197 225.153C116.057 225.114 115.907 225.134 115.781 225.209C115.654 225.284 115.562 225.407 115.524 225.552C115.486 225.697 115.506 225.852 115.578 225.982C115.651 226.112 115.77 226.208 115.911 226.247C125.394 228.788 126.569 229.202 126.855 229.202C127 229.202 127.138 229.143 127.24 229.037C127.342 228.932 127.4 228.789 127.4 228.64C127.4 228.491 127.342 228.349 127.24 228.243C127.138 228.138 127 228.079 126.855 228.079L116.197 225.153Z" fill="#CCCCCC"/>
<path d="M87.261 217.5C87.1914 217.483 87.1192 217.48 87.0484 217.491C86.9776 217.502 86.9097 217.528 86.8485 217.566C86.7873 217.605 86.734 217.655 86.6917 217.715C86.6495 217.775 86.619 217.842 86.6021 217.914C86.5851 217.986 86.5821 218.06 86.5931 218.133C86.6041 218.206 86.6289 218.276 86.6661 218.34C86.7034 218.403 86.7523 218.458 86.8101 218.501C86.868 218.545 86.9336 218.576 87.0032 218.594C96.4577 221.105 97.661 221.549 97.9475 221.549C98.067 221.52 98.1736 221.45 98.2499 221.351C98.3262 221.252 98.3678 221.129 98.3678 221.002C98.3678 220.875 98.3262 220.752 98.2499 220.653C98.1736 220.554 98.067 220.484 97.9475 220.455L87.261 217.5Z" fill="#CCCCCC"/>
<path d="M410.175 322.804C406.613 322.809 403.115 321.825 400.048 319.956C396.981 318.087 394.458 315.401 392.744 312.18C391.03 308.96 390.187 305.323 390.305 301.65C390.422 297.978 391.495 294.406 393.412 291.309C395.328 288.212 398.017 285.703 401.197 284.047C404.377 282.39 407.93 281.647 411.484 281.894C415.039 282.141 418.463 283.37 421.398 285.452C424.333 287.534 426.672 290.392 428.167 293.727C429.566 296.845 430.182 300.276 429.958 303.704C429.734 307.132 428.677 310.447 426.885 313.343C425.093 316.239 422.623 318.623 419.703 320.277C416.783 321.93 413.506 322.799 410.175 322.804ZM410.175 282.971C406.746 282.977 403.385 283.953 400.455 285.791C397.526 287.63 395.141 290.261 393.56 293.399C391.978 296.537 391.26 300.062 391.485 303.591C391.709 307.12 392.866 310.518 394.831 313.417C396.796 316.315 399.493 318.603 402.63 320.032C405.767 321.46 409.223 321.975 412.624 321.52C416.024 321.065 419.239 319.658 421.918 317.452C424.598 315.245 426.64 312.324 427.824 309.004C428.876 306.071 429.223 302.919 428.834 299.817C428.445 296.716 427.332 293.758 425.591 291.198C423.85 288.637 421.532 286.551 418.837 285.118C416.142 283.685 413.15 282.948 410.118 282.971H410.175Z" fill="#FF8A00"/>
<path d="M409.659 304.821L404.13 292.528C404.086 292.461 404.058 292.385 404.045 292.305C404.033 292.225 404.037 292.143 404.058 292.066C404.079 291.988 404.116 291.915 404.167 291.854C404.217 291.792 404.28 291.742 404.351 291.708C404.422 291.673 404.499 291.655 404.577 291.654C404.656 291.654 404.733 291.67 404.805 291.703C404.876 291.736 404.94 291.785 404.992 291.845C405.043 291.906 405.082 291.978 405.104 292.055L410.376 303.875L421.607 298.526C421.731 298.488 421.866 298.497 421.985 298.552C422.104 298.607 422.199 298.704 422.255 298.825C422.31 298.947 422.322 299.085 422.287 299.215C422.252 299.344 422.173 299.456 422.065 299.531L410.347 305.116C410.218 305.166 410.074 305.164 409.947 305.109C409.819 305.054 409.716 304.951 409.659 304.821V304.821Z" fill="#CCCCCC"/>
<path d="M450.915 71.0087C448.509 66.7535 434.585 43.143 430.517 45.6548C427.967 47.28 432.178 58.1249 437.307 68.6447C433.353 68.1423 415.332 65.867 414.644 69.8267C413.957 73.7864 431.032 78.6917 444.039 81.4103C446.389 85.5473 459.052 106.971 463.722 106.971C468.392 106.971 459.911 88.3841 457.648 83.7448C461.573 84.2767 479.623 86.6998 480.31 82.5923C480.998 78.4849 463.922 73.6977 450.915 71.0087ZM431.061 46.6299C433.926 44.8569 447.305 66.9012 449.511 70.7132C446.016 70.004 442.234 69.3539 438.596 68.822C432.207 55.8791 429.915 47.4278 431.061 46.6299ZM455.7 82.2673C452.233 81.7354 448.509 81.0853 444.641 80.317C442.693 76.8892 440.802 73.3431 439.083 69.9153C442.75 70.4472 446.503 71.1269 450.142 71.8656C452.147 75.3821 454.038 78.8986 455.7 82.2673ZM415.59 69.9153C416.077 66.9603 434.499 69.2652 437.794 69.738C439.494 73.1658 441.298 76.5937 443.208 80.0215C425.675 76.3573 415.389 71.8361 415.59 70.0336V69.9153ZM463.894 105.907C461.029 107.68 447.649 85.6359 445.472 81.824C448.967 82.5332 452.749 83.1833 456.388 83.7152C462.776 96.5399 465.183 104.991 463.894 105.907ZM479.25 82.2673C478.763 85.045 460.599 82.9469 457.075 82.4446C455.375 79.0168 453.57 75.589 451.66 72.1612C469.28 76.0027 479.565 80.5829 479.25 82.2673Z" fill="#FF8A00"/>
<path d="M138.544 0.544091C137.258 0.497959 135.987 0.846593 134.893 1.54585C133.799 2.24511 132.931 3.26353 132.398 4.47217C131.865 5.6808 131.692 7.02528 131.901 8.33535C132.11 9.64542 132.691 10.8622 133.57 11.8315C134.45 12.8008 135.588 13.4791 136.842 13.7806C138.096 14.082 139.408 13.993 140.612 13.5247C141.817 13.0565 142.859 12.2302 143.608 11.1503C144.357 10.0705 144.778 8.78577 144.819 7.45879C144.865 5.68661 144.233 3.96693 143.058 2.67255C141.884 1.37817 140.262 0.613421 138.544 0.544091V0.544091ZM138.344 12.8073C137.266 12.8068 136.212 12.4743 135.319 11.8524C134.425 11.2305 133.731 10.3476 133.327 9.31668C132.923 8.28579 132.826 7.15389 133.049 6.06596C133.272 4.97803 133.805 3.9836 134.58 3.21006C135.355 2.43652 136.335 1.91908 137.397 1.72403C138.458 1.52897 139.552 1.66518 140.538 2.11521C141.524 2.56523 142.357 3.30859 142.931 4.25005C143.505 5.19152 143.793 6.28822 143.759 7.39969C143.714 8.84997 143.124 10.2254 142.113 11.2347C141.103 12.2441 139.751 12.8081 138.344 12.8073V12.8073Z" fill="#FF8A00"/>
<path d="M114.192 133.135C113.734 132.603 112.903 133.342 113.39 133.874C121.326 143.005 120.925 142.739 121.269 142.739C121.37 142.735 121.468 142.702 121.552 142.644C121.636 142.585 121.702 142.504 121.744 142.409C121.786 142.314 121.801 142.208 121.788 142.105C121.774 142.001 121.734 141.904 121.67 141.823L114.192 133.135Z" fill="#CCCCCC"/>
<path d="M134.19 156.036C134.147 155.968 134.091 155.91 134.024 155.867C133.958 155.823 133.883 155.795 133.805 155.784C133.727 155.773 133.648 155.78 133.573 155.803C133.498 155.827 133.428 155.867 133.37 155.921C133.311 155.975 133.264 156.042 133.233 156.116C133.202 156.191 133.186 156.271 133.188 156.352C133.19 156.434 133.208 156.513 133.243 156.586C133.277 156.659 133.327 156.723 133.387 156.775C141.467 166.054 140.922 165.64 141.266 165.64C141.373 165.641 141.477 165.609 141.567 165.549C141.656 165.49 141.726 165.404 141.769 165.303C141.812 165.203 141.825 165.091 141.807 164.983C141.789 164.875 141.74 164.774 141.667 164.694L134.19 156.036Z" fill="#CCCCCC"/>
<path d="M154.187 178.908C153.7 178.376 152.898 179.115 153.385 179.647C161.465 188.925 160.92 188.512 161.264 188.512C161.365 188.508 161.463 188.475 161.547 188.416C161.631 188.358 161.698 188.277 161.739 188.182C161.781 188.087 161.796 187.981 161.783 187.878C161.77 187.774 161.729 187.677 161.665 187.596L154.187 178.908Z" fill="#CCCCCC"/>
<path d="M194.154 224.681C194.054 224.596 193.927 224.551 193.798 224.554C193.668 224.557 193.544 224.608 193.447 224.697C193.35 224.786 193.287 224.908 193.27 225.04C193.253 225.173 193.282 225.307 193.352 225.42C201.288 234.521 200.887 234.285 201.231 234.285C201.332 234.281 201.43 234.248 201.514 234.19C201.598 234.131 201.664 234.05 201.706 233.955C201.748 233.86 201.763 233.754 201.75 233.651C201.737 233.547 201.696 233.45 201.632 233.369L194.154 224.681Z" fill="#CCCCCC"/>
<path d="M214.152 247.582C214.109 247.514 214.053 247.456 213.986 247.412C213.92 247.369 213.845 247.341 213.767 247.33C213.689 247.319 213.61 247.326 213.535 247.349C213.46 247.373 213.39 247.413 213.332 247.467C213.273 247.521 213.226 247.588 213.195 247.662C213.164 247.737 213.148 247.817 213.15 247.898C213.152 247.979 213.17 248.059 213.205 248.132C213.239 248.205 213.289 248.269 213.35 248.321C221.286 257.422 220.885 257.186 221.228 257.186C221.335 257.187 221.439 257.155 221.529 257.095C221.618 257.036 221.688 256.95 221.731 256.849C221.774 256.749 221.787 256.637 221.769 256.529C221.751 256.421 221.702 256.32 221.629 256.24L214.152 247.582Z" fill="#CCCCCC"/>
<path d="M174.156 201.809C173.698 201.248 172.896 201.987 173.354 202.548C181.319 211.649 180.889 211.413 181.233 211.413C181.34 211.414 181.444 211.382 181.533 211.323C181.623 211.263 181.693 211.177 181.736 211.077C181.779 210.976 181.792 210.865 181.774 210.756C181.755 210.648 181.707 210.548 181.634 210.467L174.156 201.809Z" fill="#CCCCCC"/>
<path d="M492.773 206.803C476.614 190.048 445.243 168.949 444.928 168.743C444.841 168.691 444.742 168.663 444.641 168.663C444.541 168.663 444.442 168.691 444.355 168.743C441.649 170.449 439.116 172.429 436.791 174.653C433.124 172.702 427.594 169.068 427.48 167.029C427.05 159.08 433.697 145.93 431.519 143.802C431.295 143.62 431.026 143.507 430.742 143.476C430.458 143.444 430.172 143.496 429.915 143.625C427.05 144.748 424.386 148.944 423.01 151.722C423.085 146.374 422.855 141.026 422.323 135.706C422.154 132.533 421.791 129.375 421.234 126.25C419.773 120.162 418.827 119.069 417.882 119.187C416.937 119.305 416.335 121.906 416.134 124.654C415.303 120.015 413.957 114.962 412.238 115.05C411.55 115.05 410.089 115.05 409.745 125.6C406.393 116.025 398.744 105.949 386.424 94.8676C386.351 94.8114 386.266 94.7741 386.176 94.7587C386.086 94.7434 385.993 94.7505 385.906 94.7794C385.82 94.8083 385.741 94.8582 385.676 94.9249C385.612 94.9917 385.564 95.0733 385.536 95.1631C384.304 100.275 383.015 105.742 381.812 111.504C381.697 111.381 381.559 111.283 381.406 111.217C381.254 111.15 381.089 111.118 380.923 111.12C377.6 111.12 374.993 123.945 374.105 127.668C374.288 125.607 374.133 123.529 373.646 121.522C373.217 120.399 372.243 120.074 371.297 121.256C369.463 123.531 368.002 129.027 365.567 135.262C364.894 134.645 364.055 134.253 363.16 134.14C359.293 133.194 341.902 128.909 322.821 122.113C314.226 119.158 301.735 119.985 294.687 127.757C290.504 132.367 286.866 141.084 293.169 156.509C299.185 171.284 316.346 188.009 330.07 196.992C311.505 197.199 287.725 192.826 259.619 178.021C258.527 177.139 257.262 176.51 255.912 176.178C254.562 175.847 253.159 175.82 251.798 176.101C244.721 177.992 241.111 191.082 242.028 211.206C119.378 80.5654 124.563 85.9731 124.191 86.0617C117.142 89.7993 110.496 94.2963 104.365 99.4774L92.2747 85.4707C88.407 75.6601 87.8913 66.7951 85.4847 57.5164C83.3228 49.2576 80.1557 41.3144 76.0588 33.8764C74.3112 30.9214 73.0219 29.5326 71.9046 29.7099C65.5443 30.5668 64.3123 64.3425 59.3272 81.5406C58.1239 85.7662 55.7173 95.695 56.0898 99.4479C56.8097 103.001 58.2552 106.356 60.33 109.288C61.9057 111.948 83.4792 135.883 129.262 187.034L72.4489 173.175C72.1624 173.175 71.9332 172.88 71.6181 173.352C67.826 179.377 64.6571 185.795 62.1636 192.501L47.0077 187.95C38.7852 181.626 33.886 174.534 26.9527 167.886C20.8914 162.117 14.154 157.154 6.89773 153.111C3.83218 151.515 2.08453 151.131 1.16773 151.87C-3.90332 156.066 12.5418 185.261 17.355 202.725C18.8324 208.626 21.017 214.314 23.8585 219.657C26.2799 222.283 29.2078 224.357 32.4535 225.745C36.9477 228.056 41.793 229.555 46.7785 230.177L207.219 274.236C220.34 289.011 225.956 296.251 237.759 303.225C249.497 310.46 262.853 314.43 276.523 314.749C284.809 314.682 293.01 313.018 300.703 309.844C319.527 302.87 365.367 285.938 397.827 247.582C402.811 241.683 407.351 235.4 411.407 228.788C436.132 240.431 452.606 252.428 471.572 251.483C484.636 250.773 493.89 244.952 497.586 235.082C499.317 230.357 499.783 225.238 498.936 220.262C498.09 215.287 495.961 210.638 492.773 206.803V206.803ZM24.6321 218.83C21.863 213.607 19.7361 208.048 18.3004 202.282C14.2321 187.507 1.28233 162.98 1.11043 154.765C1.11043 153.82 1.28233 152.549 2.19913 152.549C3.526 152.738 4.80246 153.2 5.95228 153.909C6.75448 164.133 20.9362 190.905 25.4056 207.364C26.8691 212.977 28.7858 218.453 31.1356 223.735C28.6684 222.571 26.4559 220.902 24.6321 218.83V218.83ZM400.09 142.975C399.718 134.671 400.606 133.933 400.606 133.933C400.606 133.933 401.494 134.169 403.299 139.311C403.471 139.843 405.018 144.305 405.018 144.305C405.018 144.837 405.305 149.24 405.448 150.806C405.429 150.888 405.429 150.974 405.447 151.056C405.465 151.139 405.5 151.216 405.551 151.283C405.602 151.349 405.667 151.402 405.741 151.439C405.815 151.476 405.896 151.495 405.978 151.495C406.06 151.495 406.141 151.476 406.215 151.439C406.289 151.402 406.353 151.349 406.404 151.283C406.455 151.216 406.491 151.139 406.509 151.056C406.527 150.974 406.527 150.888 406.508 150.806C406.05 144.896 406.021 140.286 405.047 132.633C404.073 124.979 405.047 122.467 405.648 122.349C406.221 122.349 407.855 124.388 409.516 131.007C409.946 132.721 411.436 140.995 412.152 147.555C412.133 147.638 412.133 147.723 412.151 147.806C412.169 147.888 412.205 147.966 412.255 148.032C412.306 148.098 412.371 148.152 412.445 148.189C412.519 148.226 412.6 148.245 412.682 148.245C412.764 148.245 412.845 148.226 412.919 148.189C412.993 148.152 413.058 148.098 413.109 148.032C413.16 147.966 413.195 147.888 413.213 147.806C413.231 147.723 413.231 147.638 413.212 147.555C412.84 144.068 412.209 139.931 411.665 136.592C411.607 134.11 411.28 131.642 410.691 129.234C410.691 117.089 412.152 116.439 412.181 116.41C412.954 116.41 415.046 121.788 415.791 130.889C416.421 137.331 417.08 142.029 417.223 145.871C417.223 146.012 417.277 146.147 417.374 146.247C417.471 146.347 417.602 146.403 417.739 146.403C417.813 146.403 417.886 146.387 417.954 146.357C418.022 146.327 418.083 146.283 418.134 146.228C418.185 146.173 418.225 146.107 418.25 146.036C418.276 145.964 418.287 145.888 418.283 145.812C418.083 140.286 417.022 134.79 416.965 129.825C416.762 126.705 417.102 123.573 417.968 120.576C418.197 120.783 418.913 121.847 420.088 126.752C421.119 131.096 422.953 153.347 421.062 160.469C421.028 160.614 421.051 160.767 421.126 160.894C421.201 161.022 421.323 161.113 421.463 161.148C421.604 161.184 421.752 161.16 421.876 161.082C421.999 161.005 422.088 160.88 422.122 160.735C422.518 158.789 422.748 156.811 422.81 154.825C423.182 153.938 426.362 146.344 430.202 144.925C430.388 144.866 430.588 144.866 430.775 144.925C432.035 146.196 425.99 160.025 426.362 167.442C426.534 170.397 433.582 174.505 435.932 175.775C429.563 182.296 424.587 190.116 421.32 198.736C405.247 186.177 398.658 181.951 399.374 168.802C399.861 161.355 400.463 150.776 400.09 142.975ZM389.576 170.811C392.813 169.257 395.837 167.269 398.572 164.901C397.827 169.72 398.25 174.654 399.804 179.262C397.426 181.774 394.962 184.109 392.469 186.325C383.502 190.314 380.35 188.068 377.428 185.35C383.015 181.686 388.115 176.839 389.576 170.811V170.811ZM386.31 174.121C383.788 175.894 379.348 175.273 373.417 172.348C375.301 171.775 377.002 170.693 378.345 169.215C379.376 168.033 380.465 166.674 381.582 165.197C383.689 166.643 386.241 167.233 388.745 166.851C389 168.177 388.909 169.549 388.481 170.826C388.053 172.103 387.304 173.24 386.31 174.121V174.121ZM399.403 134.051C398.844 136.969 398.718 139.959 399.03 142.916C399.317 149.062 399.03 157.218 398.687 162.803C382.843 169.274 374.936 167.029 378.632 136.474C385.437 134.816 392.41 134.002 399.403 134.051V134.051ZM376.655 121.581C378.345 114.814 380.15 112.273 380.866 112.273C381.009 112.273 381.239 112.539 381.439 113.13C380.207 119.04 378.345 129.234 377.4 137.804C375.646 137.875 373.915 138.234 372.271 138.868C373.675 134.08 374.85 128.85 376.655 121.581V121.581ZM363.132 141.143C360.926 146.403 358.72 151.131 357.774 152.963C357.71 153.096 357.699 153.25 357.745 153.392C357.79 153.533 357.889 153.65 358.018 153.716C358.147 153.783 358.297 153.794 358.434 153.747C358.571 153.7 358.684 153.598 358.748 153.465C367.343 135.735 369.292 126.25 371.727 122.349C372.386 121.315 372.5 121.256 372.758 122.349C373.047 125.741 373.047 129.152 372.758 132.544C372.128 134.967 371.526 137.272 370.953 139.193C370.226 139.556 369.518 139.96 368.833 140.404C368.26 140.818 368.833 141.763 369.435 141.35C371.776 139.76 374.486 138.842 377.285 138.69C375.824 152.549 376.884 160.557 380.666 164.251C379.548 165.729 378.46 167.206 377.457 168.24C373.56 172.702 365.796 172.495 360.066 171.195C354.91 170.042 349.941 168.132 345.312 165.522C346.387 155.863 350.069 146.71 355.941 139.104C358.182 140.272 360.627 140.966 363.132 141.143V141.143ZM294.085 156.095C288.012 141.32 291.478 132.928 295.432 128.555C302.079 121.197 314.312 120.31 322.42 123.206C338.693 129.116 353.706 132.958 360.238 134.612C349.695 138.956 340.011 167.767 345.541 178.228L310.273 159.789C310.143 159.722 309.994 159.711 309.857 159.758C309.72 159.806 309.607 159.907 309.542 160.04C309.477 160.173 309.467 160.328 309.512 160.469C309.558 160.61 309.656 160.727 309.786 160.794L347.403 180.444C351.786 183.399 357.23 177.489 360.267 172.673C364.094 173.489 368.043 173.489 371.87 172.673C376.082 174.889 382.528 177.608 386.596 175.125C384.218 178.967 378.546 183.99 369.549 188.334C357.73 193.777 344.961 196.683 332.018 196.874C318.18 188.364 300.245 171.107 294.085 156.095V156.095ZM328.78 198.145C345.442 198.528 361.9 194.315 376.454 185.941C379.949 189.221 383.044 190.846 389.862 188.541C353.563 218.387 307.035 217.707 282.081 214.516C279.216 207.364 271.652 189.9 263.115 181.124C289.014 194.067 311.161 198.145 328.78 198.145ZM64.5415 87.096C62.6212 93.6275 61.2129 100.308 60.33 107.072C58.7797 104.725 57.6986 102.083 57.1498 99.3001C57.4982 93.3549 58.5666 87.4781 60.33 81.8065C64.5988 67.0315 66.5757 36.3291 70.9591 31.3942C72.4203 29.7394 73.423 31.3942 74.9128 34.1128C70.644 42.6528 68.6671 70.3707 64.5415 87.096ZM71.0737 120.31C75.9163 107.922 82.8629 96.5242 91.5871 86.6527L103.334 100.246C93.7211 108.504 85.6692 118.522 79.5828 129.796L71.0737 120.31ZM47.2942 229.054C44.9892 215.873 44.9892 202.373 47.2942 189.191L61.9057 193.505C57.4912 205.766 55.9881 218.938 57.5223 231.92L47.2942 229.054ZM58.525 232.009C57.6225 225.007 57.6225 217.913 58.525 210.91L68.7817 213.629C68.8546 213.667 68.9348 213.687 69.0162 213.688C69.0976 213.689 69.1783 213.672 69.2523 213.636C69.3262 213.601 69.3916 213.549 69.4436 213.485C69.4955 213.42 69.5328 213.344 69.5525 213.263C69.5723 213.181 69.574 213.096 69.5577 213.014C69.5414 212.932 69.5073 212.854 69.4581 212.787C69.4089 212.72 69.3457 212.666 69.2733 212.627C69.2009 212.589 69.121 212.568 69.0396 212.565L58.6683 209.817C60.707 197.051 65.3239 184.869 72.2197 174.062L130.351 188.364L177.795 241.524L173.927 240.49C173.787 240.451 173.637 240.471 173.51 240.546C173.384 240.62 173.292 240.744 173.254 240.889C173.216 241.034 173.235 241.189 173.308 241.319C173.38 241.449 173.5 241.544 173.641 241.583L179.113 243.031C189.398 254.497 198.566 264.721 205.557 272.581L58.525 232.009ZM291.822 311.292C270.449 317.025 251.053 309.607 238.132 301.984C231.679 298.157 225.826 293.345 220.77 287.711L80.385 130.594C84.0883 123.685 88.5383 117.232 93.6499 111.357C101.443 120.222 100.87 119.749 101.214 119.749C101.315 119.745 101.413 119.712 101.497 119.654C101.581 119.595 101.647 119.514 101.689 119.419C101.731 119.324 101.746 119.218 101.733 119.115C101.72 119.011 101.679 118.914 101.615 118.833L94.4521 110.529C102.952 101.055 112.998 93.1937 124.134 87.3028C274.403 247.405 267.699 240.401 268.042 240.401C268.149 240.402 268.253 240.371 268.343 240.311C268.432 240.251 268.503 240.166 268.545 240.065C268.588 239.964 268.601 239.853 268.583 239.745C268.565 239.636 268.516 239.536 268.444 239.456L247.644 217.293L273.715 223.706C280.387 245.709 285.67 268.135 289.53 290.843C287.705 291.229 285.858 291.495 284.001 291.641C283.856 291.641 283.718 291.7 283.616 291.805C283.514 291.911 283.456 292.054 283.456 292.202C283.456 292.351 283.514 292.494 283.616 292.6C283.718 292.705 283.856 292.764 284.001 292.764C285.926 292.618 287.84 292.342 289.731 291.937C291.421 302.545 292.395 310.228 291.822 311.44V311.292ZM496.498 234.462C490.768 249.798 472.317 252.517 456.989 248.498C442.234 244.627 421.234 231.064 403.127 223.735C403.048 223.692 402.96 223.668 402.87 223.667C402.78 223.665 402.691 223.685 402.61 223.725C402.53 223.766 402.459 223.825 402.405 223.899C402.35 223.972 402.313 224.058 402.296 224.149L399.431 243.268C367.057 283.781 319.211 301.422 300.045 308.544C297.896 309.312 295.976 310.139 292.825 311.055C293.856 301.127 278.5 228.079 270.65 213.747C291.507 217.855 356.428 225.922 400.148 180.238C403.328 186.561 411.321 192.294 420.862 199.741C419.504 203.486 418.45 207.34 417.71 211.265C417.674 211.529 417.7 211.798 417.785 212.049C417.869 212.301 418.011 212.529 418.197 212.713L456.273 233.221C456.336 233.274 456.409 233.313 456.488 233.333C456.567 233.353 456.649 233.355 456.729 233.338C456.809 233.321 456.884 233.286 456.949 233.236C457.014 233.185 457.067 233.12 457.104 233.045C457.141 232.971 457.162 232.888 457.164 232.804C457.166 232.721 457.151 232.637 457.118 232.56C457.085 232.484 457.035 232.416 456.973 232.361C456.912 232.307 456.839 232.267 456.76 232.246L418.742 211.738C422.008 194.008 431.835 177.844 444.527 169.777C447.707 171.934 476.643 191.673 491.885 207.483C494.929 211.157 496.963 215.606 497.774 220.367C498.585 225.128 498.145 230.025 496.498 234.55V234.462Z" fill="#595959"/>
<path d="M117.601 365.634L173.755 376.922L121.125 328.579L64.9426 317.291L117.601 365.634Z" fill="#E27B02"/>
<path d="M176.391 375.12L227.789 340.31L166.392 332.598L145.535 346.782L176.391 375.12Z" fill="#E27B02"/>
<path d="M268.214 439.657L256.124 451.3L244.865 438.83C244.766 438.72 244.629 438.655 244.484 438.65C244.339 438.644 244.197 438.698 244.091 438.8C243.985 438.902 243.922 439.043 243.917 439.193C243.911 439.343 243.964 439.488 244.062 439.598L255.351 452.068L243.26 463.681C243.154 463.783 243.091 463.925 243.086 464.074C243.08 464.224 243.133 464.37 243.232 464.479C243.33 464.589 243.467 464.654 243.612 464.659C243.758 464.665 243.899 464.611 244.005 464.509L256.095 452.866L267.355 465.336C267.404 465.391 267.463 465.434 267.528 465.465C267.593 465.496 267.664 465.513 267.736 465.516C267.808 465.519 267.879 465.507 267.947 465.481C268.014 465.455 268.076 465.416 268.128 465.366C268.181 465.315 268.224 465.255 268.254 465.187C268.284 465.12 268.3 465.047 268.303 464.973C268.306 464.899 268.294 464.825 268.269 464.755C268.244 464.686 268.206 464.622 268.157 464.568L256.869 452.098L268.959 440.485C269.012 440.434 269.055 440.374 269.084 440.306C269.114 440.239 269.131 440.166 269.134 440.092C269.137 440.018 269.125 439.944 269.1 439.874C269.075 439.805 269.037 439.741 268.988 439.687C268.939 439.632 268.88 439.589 268.815 439.558C268.75 439.527 268.679 439.509 268.607 439.507C268.535 439.504 268.464 439.516 268.396 439.542C268.329 439.568 268.267 439.607 268.214 439.657V439.657Z" fill="#FF8A00"/>
</svg>
