<svg width="23" height="28" viewBox="0 0 23 28" fill="none" xmlns="http://www.w3.org/2000/svg">
<path d="M7.32308 27.2431C7.11683 27.4493 6.87048 27.5467 6.58402 27.5353C6.29756 27.5238 6.05121 27.415 5.84496 27.2087C5.66162 27.0254 5.5585 26.7962 5.53558 26.5212C5.51267 26.2462 5.58142 26.0056 5.74183 25.7993L12.4106 16.5181L1.27308 15.4525C0.677248 15.4066 0.281935 15.0973 0.0871437 14.5243C-0.107648 13.9514 0.0241227 13.4702 0.482456 13.0806L14.7481 0.293092C14.9543 0.0868422 15.2007 -0.0105537 15.4871 0.000904604C15.7736 0.0123629 16.02 0.121217 16.2262 0.327467C16.4095 0.5108 16.5127 0.739967 16.5356 1.01497C16.5585 1.28997 16.4898 1.53059 16.3293 1.73684L9.66058 11.0181L20.7981 12.0837C21.3939 12.1295 21.7892 12.4389 21.984 13.0118C22.1788 13.5848 22.047 14.066 21.5887 14.4556L7.32308 27.2431Z" fill="#FF8A00"/>
</svg>
