<svg width="22" height="31" viewBox="0 0 22 31" fill="none" xmlns="http://www.w3.org/2000/svg">
<path d="M16.1906 5.12188L11.0688 10.2437L9.69375 8.86875L12.4094 6.15313H11C8.54792 6.15313 6.44531 7.02969 4.69219 8.78281C2.93906 10.5359 2.0625 12.6385 2.0625 15.0906C2.0625 15.7552 2.12552 16.3854 2.25156 16.9813C2.3776 17.5771 2.53229 18.1385 2.71562 18.6656L1.2375 20.1438C0.779167 19.3188 0.458333 18.488 0.275 17.6516C0.0916664 16.8151 0 15.9615 0 15.0906C0 12.0885 1.08281 9.50469 3.24844 7.33906C5.41406 5.17344 7.99792 4.09063 11 4.09063H12.4781L9.72812 1.34062L11.0688 0L16.1906 5.12188ZM5.74063 25.025L10.8625 19.9031L12.2031 21.2437L9.45312 23.9937H11C13.4521 23.9937 15.5547 23.1172 17.3078 21.3641C19.0609 19.6109 19.9375 17.5083 19.9375 15.0562C19.9375 14.3917 19.8802 13.7615 19.7656 13.1656C19.651 12.5698 19.4792 12.0083 19.25 11.4813L20.7281 10.0031C21.1865 10.8281 21.513 11.6589 21.7078 12.4953C21.9026 13.3318 22 14.1854 22 15.0562C22 18.0583 20.9172 20.6422 18.7516 22.8078C16.5859 24.9734 14.0021 26.0562 11 26.0562H9.45312L12.2031 28.8062L10.8625 30.1469L5.74063 25.025Z" fill="#0085FF"/>
</svg>
